<svg width="75" height="75" viewBox="0 0 75 75" fill="none" xmlns="http://www.w3.org/2000/svg">
<path d="M0 5.37188C0 2.40469 2.46562 0 5.50781 0H69.4922C72.5344 0 75 2.40469 75 5.37188V69.6281C75 72.5953 72.5344 75 69.4922 75H5.50781C2.46562 75 0 72.5953 0 69.6281V5.37188ZM23.1703 62.7844V28.9172H11.9156V62.7844H23.1703ZM17.5453 24.2906C21.4688 24.2906 23.9109 21.6938 23.9109 18.4406C23.8406 15.1172 21.4734 12.5906 17.6203 12.5906C13.7672 12.5906 11.25 15.1219 11.25 18.4406C11.25 21.6938 13.6922 24.2906 17.4703 24.2906H17.5453ZM40.5516 62.7844V43.8703C40.5516 42.8578 40.6266 41.8453 40.9266 41.1234C41.7375 39.1031 43.5891 37.0078 46.7016 37.0078C50.775 37.0078 52.4016 40.1109 52.4016 44.6672V62.7844H63.6562V43.3594C63.6562 32.9531 58.1063 28.1156 50.7 28.1156C44.7281 28.1156 42.0516 31.3969 40.5516 33.7078V33.825H40.4766C40.5015 33.7859 40.5265 33.7468 40.5516 33.7078V28.9172H29.3016C29.4422 32.0953 29.3016 62.7844 29.3016 62.7844H40.5516Z" fill="#F8F8F8"/>
</svg>
