<svg width="75" height="75" viewBox="0 0 75 75" fill="none" xmlns="http://www.w3.org/2000/svg">
<path d="M37.6465 46.2891C40.6398 46.2891 43.0664 43.8625 43.0664 40.8691C43.0664 37.8758 40.6398 35.4492 37.6465 35.4492C34.6531 35.4492 32.2266 37.8758 32.2266 40.8691C32.2266 43.8625 34.6531 46.2891 37.6465 46.2891Z" fill="#F8F8F8"/>
<path fill-rule="evenodd" clip-rule="evenodd" d="M26.1531 20.4559L37.8551 13.5345L49.0116 20.383L49.0828 33.4239L43.544 36.9603C43.544 36.9603 40.2862 33.8795 37.3228 33.8789C34.3588 33.8783 31.6978 36.958 31.6978 36.958L26.4741 33.4394L26.1531 20.4559ZM27.5124 32.2511L37.1022 26.5324L37.0026 15.3849L27.1559 21.2402L27.5124 32.2514V32.2511ZM28.0486 33.6592C28.5841 33.6592 31.5642 35.6862 31.5642 35.6862C31.5642 35.6862 34.256 32.69 37.4315 32.7876C40.6067 32.8851 43.6773 35.7656 43.6773 35.7656L47.8726 33.2941L37.7652 27.8748C37.7652 27.8748 27.513 33.6592 28.0489 33.6592H28.0486ZM25.6855 61.4689L13.8405 54.7951L14.1929 41.7091L25.7441 34.834L31.2832 38.1556C31.2832 38.1556 30.283 42.3709 31.7643 44.9379C33.2458 47.5049 37.2044 48.4157 37.2044 48.4157L37.062 54.6987L25.6855 61.4689ZM35.2207 54.3937L25.4731 48.9486L15.8693 54.6082L25.863 60.2083L35.2204 54.394L35.2207 54.3937ZM36.172 53.2257C35.9039 52.7619 36.1697 49.1675 36.1697 49.1675C36.1697 49.1675 32.2682 48.1878 30.765 45.389C29.262 42.5906 30.182 38.6376 30.182 38.6376L25.9436 36.2399L26.3042 47.7029C26.3042 47.7029 36.4398 53.6894 36.172 53.2254V53.2257ZM60.903 41.2561L61.0459 54.8511L49.5369 61.0889L38.2075 54.6302L37.9146 48.3577C37.9146 48.3577 41.879 47.5169 43.3615 44.9505C44.8439 42.3841 44.1322 38.1 44.1322 38.1L49.4983 35.0426L60.903 41.2561ZM50.0083 36.5358L50.1665 47.7003L59.8697 53.1876L59.7226 41.7328L50.0083 36.5358ZM48.8139 36.5894L45.3006 38.6203C45.3006 38.6203 45.9243 42.8891 44.2521 45.59C42.5798 48.2912 39.1752 49.0708 39.1752 49.0708L39.218 53.354L48.6721 47.603L48.8139 36.5894Z" fill="#F8F8F8"/>
</svg>
