<svg width="75" height="75" viewBox="0 0 75 75" fill="none" xmlns="http://www.w3.org/2000/svg">
<path d="M73.8844 15.4281C71.275 16.5844 68.4719 17.3656 65.525 17.7187C68.5657 15.8993 70.8405 13.0358 71.925 9.6625C69.0683 11.3593 65.9417 12.5537 62.6813 13.1937C60.4887 10.8527 57.5846 9.30102 54.4198 8.7796C51.255 8.25819 48.0066 8.79622 45.1789 10.3102C42.3512 11.8241 40.1025 14.2293 38.7818 17.1522C37.4611 20.0751 37.1423 23.3523 37.875 26.475C32.0866 26.1844 26.4239 24.6798 21.2545 22.0591C16.0851 19.4383 11.5245 15.7599 7.86879 11.2625C6.61879 13.4187 5.90004 15.9187 5.90004 18.5812C5.89864 20.9781 6.48889 23.3383 7.61841 25.4523C8.74793 27.5663 10.3818 29.3689 12.375 30.7C10.0634 30.6264 7.80277 30.0018 5.78129 28.8781V29.0656C5.78105 32.4273 6.94389 35.6856 9.07248 38.2875C11.2011 40.8894 14.1643 42.6748 17.4594 43.3406C15.315 43.921 13.0667 44.0065 10.8844 43.5906C11.8141 46.4832 13.625 49.0126 16.0637 50.8248C18.5023 52.637 21.4467 53.6412 24.4844 53.6969C19.3276 57.745 12.9591 59.9409 6.40316 59.9312C5.24185 59.9316 4.08153 59.8637 2.92816 59.7281C9.58277 64.0068 17.3292 66.2776 25.2407 66.2687C52.0219 66.2687 66.6625 44.0875 66.6625 24.85C66.6625 24.225 66.6469 23.5937 66.6188 22.9687C69.4666 20.9093 71.9248 18.359 73.8782 15.4375L73.8844 15.4281Z" fill="#F8F8F8"/>
</svg>
